<svg width="1200" height="630" viewBox="0 0 1200 630" fill="none" xmlns="http://www.w3.org/2000/svg">
<rect width="1200" height="630" fill="#222222"/>
<path d="M351.9 202V132H405.2V146H367.3V160.9H400.7V174.9H367.3V202H351.9ZM403.517 202L433.517 131.5H447.717L477.717 202H461.617L455.217 186.3H425.617L419.217 202H403.517ZM431.117 172.7H449.717L440.417 150L431.117 172.7ZM512.445 203C500.978 203 491.078 199.267 482.745 191.8L491.845 180.9C498.711 186.567 505.678 189.4 512.745 189.4C515.878 189.4 518.345 188.833 520.145 187.7C521.945 186.5 522.845 184.867 522.845 182.8V182.6C522.845 180.6 521.911 179 520.045 177.8C518.178 176.533 514.411 175.167 508.745 173.7C504.745 172.7 501.511 171.733 499.045 170.8C496.578 169.8 494.211 168.5 491.945 166.9C489.745 165.3 488.111 163.333 487.045 161C486.045 158.6 485.545 155.7 485.545 152.3V152.1C485.545 145.767 487.811 140.667 492.345 136.8C496.945 132.933 502.845 131 510.045 131C519.978 131 528.645 133.967 536.045 139.9L528.045 151.5C521.445 146.9 515.378 144.6 509.845 144.6C506.978 144.6 504.745 145.167 503.145 146.3C501.611 147.433 500.845 148.9 500.845 150.7V150.9C500.845 153.167 501.811 154.867 503.745 156C505.678 157.133 509.745 158.5 515.945 160.1C523.545 162.1 529.145 164.667 532.745 167.8C536.345 170.867 538.145 175.3 538.145 181.1V181.3C538.145 188.1 535.778 193.433 531.045 197.3C526.378 201.1 520.178 203 512.445 203ZM566.345 202V146.2H545.045V132H603.045V146.2H581.745V202H566.345Z" fill="white"/>
<path d="M376.8 303C365.333 303 355.433 299.267 347.1 291.8L356.2 280.9C363.067 286.567 370.033 289.4 377.1 289.4C380.233 289.4 382.7 288.833 384.5 287.7C386.3 286.5 387.2 284.867 387.2 282.8V282.6C387.2 280.6 386.267 279 384.4 277.8C382.533 276.533 378.767 275.167 373.1 273.7C369.1 272.7 365.867 271.733 363.4 270.8C360.933 269.8 358.567 268.5 356.3 266.9C354.1 265.3 352.467 263.333 351.4 261C350.4 258.6 349.9 255.7 349.9 252.3V252.1C349.9 245.767 352.167 240.667 356.7 236.8C361.3 232.933 367.2 231 374.4 231C384.333 231 393 233.967 400.4 239.9L392.4 251.5C385.8 246.9 379.733 244.6 374.2 244.6C371.333 244.6 369.1 245.167 367.5 246.3C365.967 247.433 365.2 248.9 365.2 250.7V250.9C365.2 253.167 366.167 254.867 368.1 256C370.033 257.133 374.1 258.5 380.3 260.1C387.9 262.1 393.5 264.667 397.1 267.8C400.7 270.867 402.5 275.3 402.5 281.1V281.3C402.5 288.1 400.133 293.433 395.4 297.3C390.733 301.1 384.533 303 376.8 303ZM415.865 302V232H432.465L450.865 261.6L469.265 232H485.865V302H470.565V256.3L450.865 286.2H450.465L430.965 256.6V302H415.865ZM496.681 302L526.681 231.5H540.881L570.881 302H554.781L548.381 286.3H518.781L512.381 302H496.681ZM524.281 272.7H542.881L533.581 250L524.281 272.7ZM581.685 302V232H613.685C622.552 232 629.352 234.367 634.085 239.1C638.085 243.1 640.085 248.433 640.085 255.1V255.3C640.085 266.033 635.085 273.267 625.085 277L642.185 302H624.185L609.185 279.6H608.985H597.085V302H581.685ZM597.085 266H612.685C616.352 266 619.218 265.1 621.285 263.3C623.418 261.5 624.485 259.1 624.485 256.1V255.9C624.485 252.633 623.418 250.167 621.285 248.5C619.152 246.767 616.185 245.9 612.385 245.9H597.085V266ZM670.251 302V246.2H648.951V232H706.951V246.2H685.651V302H670.251Z" fill="white"/>
<path d="M385.6 403.2C374.8 403.2 365.967 399.8 359.1 393C352.233 386.2 348.8 377.6 348.8 367.2V367C348.8 356.933 352.3 348.4 359.3 341.4C366.3 334.333 375.033 330.8 385.5 330.8C391.567 330.8 396.7 331.6 400.9 333.2C405.1 334.733 409.133 337.133 413 340.4L403.3 352.1C400.367 349.633 397.533 347.833 394.8 346.7C392.067 345.567 388.8 345 385 345C379.4 345 374.633 347.133 370.7 351.4C366.833 355.667 364.9 360.8 364.9 366.8V367C364.9 373.4 366.867 378.7 370.8 382.9C374.8 387.1 379.9 389.2 386.1 389.2C391.833 389.2 396.667 387.8 400.6 385V375H385.1V361.7H415.5V392.1C406.767 399.5 396.8 403.2 385.6 403.2ZM430.318 402V332H445.718V388H480.618V402H430.318ZM548.828 392.7C541.761 399.7 532.895 403.2 522.228 403.2C511.561 403.2 502.695 399.733 495.628 392.8C488.628 385.8 485.128 377.267 485.128 367.2V367C485.128 356.933 488.661 348.4 495.728 341.4C502.861 334.333 511.761 330.8 522.428 330.8C533.095 330.8 541.928 334.3 548.928 341.3C555.995 348.233 559.528 356.733 559.528 366.8V367C559.528 377.067 555.961 385.633 548.828 392.7ZM507.228 382.6C511.228 386.867 516.295 389 522.428 389C528.561 389 533.595 386.9 537.528 382.7C541.461 378.5 543.428 373.333 543.428 367.2V367C543.428 360.867 541.428 355.667 537.428 351.4C533.428 347.133 528.361 345 522.228 345C516.095 345 511.061 347.1 507.128 351.3C503.195 355.5 501.228 360.667 501.228 366.8V367C501.228 373.133 503.228 378.333 507.228 382.6ZM573.189 402V332H605.689C613.756 332 619.856 334.067 623.989 338.2C627.189 341.4 628.789 345.367 628.789 350.1V350.3C628.789 356.9 625.722 361.933 619.589 365.4C623.922 367.067 627.189 369.233 629.389 371.9C631.589 374.567 632.689 378.133 632.689 382.6V382.8C632.689 389.067 630.356 393.833 625.689 397.1C621.022 400.367 614.622 402 606.489 402H573.189ZM588.189 360.3H602.389C609.789 360.3 613.489 357.833 613.489 352.9V352.7C613.489 350.367 612.622 348.6 610.889 347.4C609.156 346.133 606.656 345.5 603.389 345.5H588.189V360.3ZM588.189 388.5H606.489C613.756 388.5 617.389 385.967 617.389 380.9V380.7C617.389 375.633 613.589 373.1 605.989 373.1H588.189V388.5ZM639.357 402L669.357 331.5H683.557L713.557 402H697.457L691.057 386.3H661.457L655.057 402H639.357ZM666.957 372.7H685.557L676.257 350L666.957 372.7ZM724.361 402V332H739.761V388H774.661V402H724.361Z" fill="white"/>
<path d="M351.9 502V432H404.7V445.7H367.2V459.9H400.2V473.6H367.2V488.3H405.2V502H351.9ZM443.792 503C432.326 503 422.426 499.267 414.092 491.8L423.192 480.9C430.059 486.567 437.026 489.4 444.092 489.4C447.226 489.4 449.692 488.833 451.492 487.7C453.292 486.5 454.192 484.867 454.192 482.8V482.6C454.192 480.6 453.259 479 451.392 477.8C449.526 476.533 445.759 475.167 440.092 473.7C436.092 472.7 432.859 471.733 430.392 470.8C427.926 469.8 425.559 468.5 423.292 466.9C421.092 465.3 419.459 463.333 418.392 461C417.392 458.6 416.892 455.7 416.892 452.3V452.1C416.892 445.767 419.159 440.667 423.692 436.8C428.292 432.933 434.192 431 441.392 431C451.326 431 459.992 433.967 467.392 439.9L459.392 451.5C452.792 446.9 446.726 444.6 441.192 444.6C438.326 444.6 436.092 445.167 434.492 446.3C432.959 447.433 432.192 448.9 432.192 450.7V450.9C432.192 453.167 433.159 454.867 435.092 456C437.026 457.133 441.092 458.5 447.292 460.1C454.892 462.1 460.492 464.667 464.092 467.8C467.692 470.867 469.492 475.3 469.492 481.1V481.3C469.492 488.1 467.126 493.433 462.392 497.3C457.726 501.1 451.526 503 443.792 503ZM482.857 502V432H499.457L517.857 461.6L536.257 432H552.857V502H537.557V456.3L517.857 486.2H517.457L497.957 456.6V502H482.857ZM570.073 494.9V480.8L603.873 466.9L570.073 453V438.7L618.473 459.9V473.7L570.073 494.9Z" fill="#999999"/>
<path d="M666.438 503.2C656.172 503.2 647.605 499.733 640.738 492.8C633.938 485.867 630.538 477.333 630.538 467.2V467C630.538 456.867 633.972 448.3 640.838 441.3C647.705 434.3 656.438 430.8 667.038 430.8C673.238 430.8 678.505 431.733 682.838 433.6C687.172 435.4 691.105 438.067 694.638 441.6L684.838 452.9C679.038 447.633 673.072 445 666.938 445C661.138 445 656.305 447.133 652.438 451.4C648.572 455.6 646.638 460.733 646.638 466.8V467C646.638 473.133 648.538 478.333 652.338 482.6C656.205 486.867 661.072 489 666.938 489C670.672 489 673.905 488.333 676.638 487C679.372 485.667 682.272 483.6 685.338 480.8L695.138 490.7C691.272 494.833 687.105 497.967 682.638 500.1C678.238 502.167 672.838 503.2 666.438 503.2ZM707.466 502V432H734.766C745.633 432 754.533 435.333 761.466 442C768.466 448.6 771.966 456.867 771.966 466.8V467C771.966 477 768.466 485.333 761.466 492C754.533 498.667 745.633 502 734.766 502H707.466ZM722.866 488.1H734.766C741.033 488.1 746.1 486.167 749.966 482.3C753.9 478.433 755.866 473.4 755.866 467.2V467C755.866 460.8 753.9 455.733 749.966 451.8C746.1 447.867 741.033 445.9 734.766 445.9H722.866V488.1ZM785.689 502V432H799.889L832.689 475.1V432H847.889V502H834.789L800.889 457.5V502H785.689Z" fill="white"/>
</svg>
